<?xml version="1.0" encoding="UTF-8"?>
<svg xmlns="http://www.w3.org/2000/svg" xmlns:xlink="http://www.w3.org/1999/xlink" viewBox="0 0 84.82 64.24">
  <defs>
    <radialGradient id="radial-gradient" cx="-816.64" cy="4.43" fx="-816.64" fy="4.43" r="40.1" gradientTransform="translate(891.36)" gradientUnits="userSpaceOnUse">
      <stop offset="0" stop-color="#fff"/>
      <stop offset=".2" stop-color="#d9f7ff"/>
      <stop offset="1" stop-color="#89c0f5"/>
    </radialGradient>
    <radialGradient id="radial-gradient-2" cx="1047.03" cy="-1576.84" fx="1047.03" fy="-1576.84" r="4.71" gradientTransform="translate(-1598.92 -3267.6) rotate(126.03) scale(1.43 2.08) skewX(-4.38)" gradientUnits="userSpaceOnUse">
      <stop offset="0" stop-color="#fff"/>
      <stop offset=".1" stop-color="#fff" stop-opacity=".85"/>
      <stop offset=".29" stop-color="#fff" stop-opacity=".59"/>
      <stop offset=".47" stop-color="#fff" stop-opacity=".38"/>
      <stop offset=".63" stop-color="#fff" stop-opacity=".22"/>
      <stop offset=".78" stop-color="#fff" stop-opacity=".1"/>
      <stop offset=".91" stop-color="#fff" stop-opacity=".03"/>
      <stop offset="1" stop-color="#fff" stop-opacity="0"/>
    </radialGradient>
    <radialGradient id="radial-gradient-3" cx="1060.92" cy="-1569.86" fx="1060.92" fy="-1569.86" r="2.59" xlink:href="#radial-gradient-2"/>
    <radialGradient id="Degradado_sin_nombre_34" data-name="Degradado sin nombre 34" cx="-948.13" cy="-358.42" fx="-948.13" fy="-358.42" r="2.7" gradientTransform="translate(1213.73 248.13) rotate(-33.01) scale(.84 2.3) skewX(11.81)" gradientUnits="userSpaceOnUse">
      <stop offset="0" stop-color="#fff"/>
      <stop offset=".1" stop-color="#fff" stop-opacity=".85"/>
      <stop offset=".29" stop-color="#fff" stop-opacity=".59"/>
      <stop offset=".47" stop-color="#fff" stop-opacity=".38"/>
      <stop offset=".63" stop-color="#fff" stop-opacity=".22"/>
      <stop offset=".78" stop-color="#fff" stop-opacity=".1"/>
      <stop offset=".91" stop-color="#fff" stop-opacity=".03"/>
      <stop offset="1" stop-color="#fff" stop-opacity="0"/>
    </radialGradient>
    <radialGradient id="radial-gradient-4" cx="820.36" cy="29.67" fx="820.36" fy="29.67" r="49.74" gradientTransform="translate(832.88) rotate(-180) scale(1 -1)" xlink:href="#radial-gradient"/>
    <radialGradient id="radial-gradient-5" cx="337.74" cy="-2220.45" fx="337.74" fy="-2220.45" r="5.84" gradientTransform="translate(3323.16 -3267.6) rotate(53.97) scale(1.43 -2.08) skewX(-4.38)" xlink:href="#radial-gradient-2"/>
    <radialGradient id="radial-gradient-6" cx="354.97" cy="-2211.81" fx="354.97" fy="-2211.81" r="3.21" gradientTransform="translate(3323.16 -3267.6) rotate(53.97) scale(1.43 -2.08) skewX(-4.38)" xlink:href="#radial-gradient-2"/>
    <radialGradient id="Degradado_sin_nombre_34-2" data-name="Degradado sin nombre 34" cx="924.25" cy="24.06" fx="924.25" fy="24.06" r="3.35" gradientTransform="translate(737.5 436.42) rotate(-146.99) scale(.84 -2.3) skewX(11.81)" xlink:href="#Degradado_sin_nombre_34"/>
  </defs>
  <g style="isolation: isolate;">
    <g id="Layer_2" data-name="Layer 2">
      <g id="OBJECTS">
        <g>
          <g>
            <path d="m68.66,0c-7.61,0-13.98,5.26-15.69,12.34-1.38-.67-2.93-1.05-4.57-1.05-5.8,0-10.51,4.7-10.51,10.51s4.71,10.51,10.51,10.51h20.26c8.92,0,16.15-7.23,16.15-16.15S77.58,0,68.66,0Z" style="fill: url(#radial-gradient);"/>
            <path d="m70.73,15.44c-4.2-3.41-5.85-8.61-3.67-11.61,2.18-3,7.36-2.66,11.57.75,4.21,3.41,5.85,8.61,3.67,11.61-2.18,3-7.36,2.66-11.57-.75Z" style="fill: url(#radial-gradient-2); mix-blend-mode: overlay;"/>
            <path d="m49.57,19.87c-2.31-1.88-3.21-4.73-2.02-6.38,1.2-1.65,4.04-1.46,6.36.41,2.31,1.88,3.21,4.73,2.02,6.38-1.2,1.65-4.04,1.46-6.36-.41Z" style="fill: url(#radial-gradient-3); mix-blend-mode: overlay; opacity: .4;"/>
            <path d="m44.44,23.95c-2.54-2.57-5.17-3.58-5.87-2.25-.7,1.33.8,4.49,3.34,7.07,2.54,2.57,5.17,3.58,5.87,2.25.7-1.33-.8-4.49-3.34-7.06Z" style="fill: url(#Degradado_sin_nombre_34); mix-blend-mode: overlay; opacity: .2;"/>
          </g>
          <g>
            <path d="m20.03,24.17c9.43,0,17.34,6.53,19.46,15.31,1.71-.83,3.63-1.31,5.66-1.31,7.2,0,13.03,5.83,13.03,13.03s-5.83,13.03-13.03,13.03h-25.13c-11.06,0-20.03-8.97-20.03-20.03s8.97-20.03,20.03-20.03Z" style="fill: url(#radial-gradient-4);"/>
            <path d="m17.46,43.32c5.22-4.23,7.25-10.68,4.55-14.39-2.71-3.72-9.13-3.3-14.35.93-5.21,4.23-7.25,10.68-4.55,14.39,2.71,3.72,9.13,3.3,14.34-.93Z" style="fill: url(#radial-gradient-5); mix-blend-mode: overlay;"/>
            <path d="m43.71,48.81c2.87-2.33,3.99-5.87,2.5-7.91-1.49-2.05-5.02-1.82-7.88.51-2.87,2.33-3.98,5.87-2.5,7.91,1.49,2.05,5.02,1.82,7.88-.51Z" style="fill: url(#radial-gradient-6); mix-blend-mode: overlay; opacity: .4;"/>
            <path d="m50.07,53.88c3.15-3.19,6.41-4.44,7.28-2.79.87,1.65-.99,5.57-4.14,8.76-3.15,3.19-6.41,4.43-7.28,2.79-.86-1.65.99-5.57,4.14-8.76Z" style="fill: url(#Degradado_sin_nombre_34-2); mix-blend-mode: overlay; opacity: .2;"/>
          </g>
        </g>
      </g>
    </g>
  </g>
</svg>