<?xml version="1.0" encoding="UTF-8"?>
<svg xmlns="http://www.w3.org/2000/svg" xmlns:xlink="http://www.w3.org/1999/xlink" viewBox="0 0 92.11 73.15">
  <defs>
    <radialGradient id="radial-gradient" cx="57.67" cy="13.78" fx="57.67" fy="13.78" r="70.26" gradientTransform="translate(115.34 23.84) rotate(-180) scale(1 .73)" gradientUnits="userSpaceOnUse">
      <stop offset="0" stop-color="#fff"/>
      <stop offset=".2" stop-color="#d5f3ff"/>
      <stop offset="1" stop-color="#85bcf1"/>
    </radialGradient>
    <radialGradient id="radial-gradient-2" cx="1449.03" cy="-2216.2" fx="1449.03" fy="-2216.2" r="8.48" gradientTransform="translate(-2317.93 -4562.71) rotate(126.03) scale(1.43 2.08) skewX(-4.38)" gradientUnits="userSpaceOnUse">
      <stop offset="0" stop-color="#fff"/>
      <stop offset=".1" stop-color="#fff" stop-opacity=".85"/>
      <stop offset=".29" stop-color="#fff" stop-opacity=".59"/>
      <stop offset=".47" stop-color="#fff" stop-opacity=".38"/>
      <stop offset=".63" stop-color="#fff" stop-opacity=".22"/>
      <stop offset=".78" stop-color="#fff" stop-opacity=".1"/>
      <stop offset=".91" stop-color="#fff" stop-opacity=".03"/>
      <stop offset="1" stop-color="#fff" stop-opacity="0"/>
    </radialGradient>
    <radialGradient id="radial-gradient-3" cx="1448.78" cy="-2231.85" fx="1448.78" fy="-2231.85" r="6.66" xlink:href="#radial-gradient-2"/>
    <radialGradient id="Degradado_sin_nombre_34" data-name="Degradado sin nombre 34" cx="10.93" cy="51.53" fx="10.93" fy="51.53" r="4.87" gradientTransform="translate(-63.98 -78.88) rotate(-25.71) scale(1 2.91)" gradientUnits="userSpaceOnUse">
      <stop offset="0" stop-color="#fff"/>
      <stop offset=".1" stop-color="#fff" stop-opacity=".85"/>
      <stop offset=".29" stop-color="#fff" stop-opacity=".59"/>
      <stop offset=".47" stop-color="#fff" stop-opacity=".38"/>
      <stop offset=".63" stop-color="#fff" stop-opacity=".22"/>
      <stop offset=".78" stop-color="#fff" stop-opacity=".1"/>
      <stop offset=".91" stop-color="#fff" stop-opacity=".03"/>
      <stop offset="1" stop-color="#fff" stop-opacity="0"/>
    </radialGradient>
    <radialGradient id="radial-gradient-4" cx="84.92" cy="43.01" fx="84.92" fy="43.01" r="28.9" gradientUnits="userSpaceOnUse">
      <stop offset="0" stop-color="#28cbe9"/>
      <stop offset="1" stop-color="#0a4fbb"/>
    </radialGradient>
    <radialGradient id="radial-gradient-5" cx="52.27" cy="55.08" fx="52.27" fy="55.08" r="22.03" xlink:href="#radial-gradient-4"/>
  </defs>
  <g style="isolation: isolate;">
    <g id="Layer_2" data-name="Layer 2">
      <g id="OBJECTS">
        <g>
          <path d="m73,25.15c-.96-14.05-12.65-25.15-26.94-25.15s-25.98,11.1-26.94,25.15C8.47,25.67,0,34.47,0,45.24s9.01,20.12,20.12,20.12h51.86c11.11,0,20.12-9.01,20.12-20.12s-8.47-19.57-19.11-20.1Z" style="fill: url(#radial-gradient);"/>
          <path d="m46.06,27.65c-7.58-6.15-10.53-15.5-6.61-20.9,3.93-5.4,13.26-4.79,20.84,1.35,7.57,6.15,10.53,15.51,6.6,20.9-3.93,5.4-13.26,4.79-20.83-1.35Z" style="fill: url(#radial-gradient-2); mix-blend-mode: overlay;"/>
          <path d="m73.14,45.82c-5.95-4.83-8.28-12.19-5.19-16.43,3.09-4.24,10.42-3.77,16.37,1.06,5.95,4.83,8.27,12.19,5.19,16.43-3.09,4.25-10.42,3.77-16.37-1.06Z" style="fill: url(#radial-gradient-3); mix-blend-mode: overlay; opacity: .4;"/>
          <path d="m14.39,46.49c-4.39-6.85-9.5-10.15-11.41-7.37-1.9,2.78.11,10.59,4.5,17.45,4.4,6.85,9.5,10.15,11.41,7.37,1.91-2.79-.11-10.59-4.5-17.45Z" style="fill: url(#Degradado_sin_nombre_34); mix-blend-mode: overlay; opacity: .2;"/>
        </g>
        <path d="m89.29,56.07l-3.1-1.79.96-.55c.76-.44,1.02-1.41.58-2.17-.44-.76-1.41-1.02-2.17-.58l-2.55,1.47-2.35-1.36c.1-.42.16-.86.16-1.31s-.06-.89-.16-1.31l2.35-1.36,2.55,1.47c.25.15.52.21.79.21.55,0,1.08-.29,1.38-.8.44-.76.18-1.73-.58-2.17l-.96-.55,3.1-1.79c.76-.44,1.02-1.41.58-2.17-.44-.76-1.41-1.02-2.17-.58l-3.1,1.79v-1.11c0-.88-.71-1.59-1.59-1.59h0c-.88,0-1.59.71-1.59,1.59v2.94s-2.36,1.36-2.36,1.36c-.64-.6-1.41-1.06-2.27-1.32v-2.72l2.55-1.47c.76-.44,1.02-1.41.58-2.17-.44-.76-1.41-1.02-2.17-.58l-.96.55v-3.58c0-.88-.71-1.59-1.59-1.59s-1.59.71-1.59,1.59v3.58l-.96-.55c-.76-.44-1.73-.18-2.17.58-.44.76-.18,1.73.58,2.17l2.55,1.47v2.72c-.86.25-1.64.71-2.27,1.32l-2.36-1.36v-2.94c0-.88-.71-1.59-1.59-1.59s-1.59.71-1.59,1.59v1.11l-3.1-1.79c-.76-.44-1.73-.18-2.17.58-.44.76-.18,1.73.58,2.17l3.1,1.79-.96.55c-.76.44-1.02,1.41-.58,2.17.29.51.83.8,1.38.8.27,0,.54-.07.79-.21l2.55-1.47,2.36,1.36c-.1.42-.16.86-.16,1.31s.06.89.16,1.31l-2.36,1.36-2.55-1.47c-.76-.44-1.73-.18-2.17.58-.44.76-.18,1.73.58,2.17l.96.55-3.1,1.79c-.76.44-1.02,1.41-.58,2.17.29.51.83.8,1.38.8.27,0,.54-.07.79-.21l3.1-1.79v1.11c0,.88.71,1.59,1.59,1.59s1.59-.71,1.59-1.59v-2.94s2.36-1.36,2.36-1.36c.64.6,1.41,1.06,2.27,1.32v2.72l-2.55,1.47c-.76.44-1.02,1.41-.58,2.17.44.76,1.41,1.02,2.17.58l.96-.55v3.58c0,.88.71,1.59,1.59,1.59s1.59-.71,1.59-1.59v-3.58l.96.55c.25.15.52.21.79.21.55,0,1.08-.28,1.38-.8.44-.76.18-1.73-.58-2.17l-2.55-1.47v-2.72c.86-.25,1.64-.71,2.27-1.32l2.36,1.36v2.94c0,.88.71,1.59,1.59,1.59s1.59-.71,1.59-1.59v-1.11l3.1,1.79c.25.15.52.21.79.21.55,0,1.09-.29,1.38-.8.44-.76.18-1.73-.58-2.17Zm-14.09-3.86c-1.34,0-2.44-1.09-2.44-2.44s1.09-2.44,2.44-2.44,2.44,1.09,2.44,2.44-1.09,2.44-2.44,2.44Z" style="fill: url(#radial-gradient-4);"/>
        <path d="m55.6,65.03l-2.36-1.36.73-.42c.58-.33.78-1.08.44-1.66-.33-.58-1.08-.78-1.66-.44l-1.94,1.12-1.79-1.04c.08-.32.12-.66.12-1s-.05-.68-.12-1l1.79-1.04,1.94,1.12c.19.11.4.16.6.16.42,0,.83-.22,1.05-.61.33-.58.14-1.32-.44-1.66l-.73-.42,2.36-1.36c.58-.34.78-1.08.44-1.66-.33-.58-1.08-.78-1.66-.44l-2.36,1.36v-.84c0-.67-.54-1.21-1.21-1.21h0c-.67,0-1.21.54-1.21,1.21v2.24s-1.8,1.04-1.8,1.04c-.48-.46-1.07-.81-1.73-1v-2.07l1.94-1.12c.58-.33.78-1.08.44-1.66-.33-.58-1.08-.78-1.66-.44l-.73.42v-2.73c0-.67-.54-1.21-1.21-1.21s-1.21.54-1.21,1.21v2.73l-.73-.42c-.58-.34-1.32-.14-1.66.44-.33.58-.14,1.32.44,1.66l1.94,1.12v2.07c-.66.19-1.25.54-1.73,1l-1.8-1.04v-2.24c0-.67-.54-1.21-1.21-1.21s-1.21.54-1.21,1.21v.84l-2.36-1.36c-.58-.34-1.32-.14-1.66.44-.34.58-.14,1.32.44,1.66l2.36,1.36-.73.42c-.58.33-.78,1.08-.44,1.66.22.39.63.61,1.05.61.21,0,.41-.05.6-.16l1.94-1.12,1.8,1.04c-.08.32-.12.66-.12,1s.05.68.12,1l-1.8,1.04-1.94-1.12c-.58-.34-1.32-.14-1.66.44-.34.58-.14,1.32.44,1.66l.73.42-2.36,1.36c-.58.33-.78,1.08-.44,1.66.22.39.63.61,1.05.61.21,0,.41-.05.61-.16l2.36-1.36v.84c0,.67.54,1.21,1.21,1.21s1.21-.54,1.21-1.21v-2.24s1.8-1.04,1.8-1.04c.48.46,1.08.81,1.73,1v2.07l-1.94,1.12c-.58.33-.78,1.08-.44,1.66.33.58,1.08.78,1.66.44l.73-.42v2.73c0,.67.54,1.21,1.21,1.21s1.21-.54,1.21-1.21v-2.73l.73.42c.19.11.4.16.61.16.42,0,.83-.22,1.05-.61.34-.58.14-1.32-.44-1.66l-1.94-1.12v-2.07c.66-.19,1.25-.54,1.73-1l1.8,1.04v2.25c0,.67.54,1.21,1.21,1.21s1.21-.54,1.21-1.21v-.84l2.36,1.36c.19.11.4.16.6.16.42,0,.83-.22,1.05-.61.33-.58.14-1.32-.44-1.66Zm-10.74-2.94c-1.02,0-1.86-.83-1.86-1.86s.83-1.86,1.86-1.86,1.86.83,1.86,1.86-.83,1.86-1.86,1.86Z" style="fill: url(#radial-gradient-5);"/>
      </g>
    </g>
  </g>
</svg>